<?xml version="1.0" encoding="utf-8"?>
<!-- Generator: Adobe Illustrator 15.0.0, SVG Export Plug-In . SVG Version: 6.00 Build 0)  -->
<!DOCTYPE svg PUBLIC "-//W3C//DTD SVG 1.1//EN" "http://www.w3.org/Graphics/SVG/1.1/DTD/svg11.dtd">
<svg version="1.1" id="svg2" xmlns:svg="http://www.w3.org/2000/svg"
	 xmlns="http://www.w3.org/2000/svg" xmlns:xlink="http://www.w3.org/1999/xlink" x="0px" y="0px" width="250px" height="250px"
	 viewBox="0 0 250 250" enable-background="new 0 0 250 250" xml:space="preserve">
<g id="g2838" transform="matrix(1.5972422,0,0,1.5972422,-2.2226619,-146.86239)">
	<line id="line4" fill="none" stroke="#FF0000" stroke-width="1.5" x1="68.199" y1="115.043" x2="68.199" y2="166.443"/>
	<path id="path6" fill="none" stroke="#FF0000" stroke-width="1.5" d="M68.199,166.443c13.333-14.54,13.333-36.861,0-51.4"/>
	<path id="path8" fill="none" stroke="#FF0000" stroke-width="1.5" d="M68.199,115.043c-13.334,14.539-13.334,36.86,0,51.4"/>
	<path id="path10" fill="none" stroke="#FF0000" stroke-width="1.5" d="M97.588,205.493c-2.114-17.334-13.318-32.222-29.389-39.051"
		/>
	<path id="path12" fill="none" stroke="#F20000" stroke-width="1.5" d="M68.199,166.443c1.332,17.638,12.809,32.888,29.389,39.051"
		/>
	<path id="path14" fill="none" stroke="#404040" stroke-width="1.5" d="M97.588,205.493c17.408-12.817,24.714-35.301,18.164-55.902"
		/>
	<line id="line16" fill="none" stroke="#404040" stroke-width="1.5" x1="115.752" y1="149.592" x2="68.199" y2="166.443"/>
	<line id="line18" fill="none" stroke="#404040" stroke-width="1.5" x1="68.199" y1="166.443" x2="20.646" y2="149.592"/>
	<path id="path20" fill="none" stroke="#F20000" stroke-width="1.5" d="M68.199,166.443c-16.383,6.426-27.75,21.53-29.389,39.051"/>
	<path id="path22" fill="none" stroke="#FF0000" stroke-width="1.5" d="M38.81,205.493c16.343-6.477,27.69-21.553,29.389-39.051"/>
	<path id="path24" fill="none" stroke="#FF0000" stroke-width="1.5" d="M68.199,115.043c-21.909-0.785-41.529,13.47-47.553,34.549"
		/>
	<path id="path26" fill="none" stroke="#FF0000" stroke-width="1.5" d="M68.199,115.043c-11.503-11.706-30.317-11.871-42.023-0.369
		c-9.32,9.158-11.564,23.328-5.53,34.918"/>
	<path id="path14_1_" fill="none" stroke="#404040" stroke-width="1.5" d="M115.752,152.521
		c-16.738,6.333-22.716,30.336-16.065,51.339"/>
	<path id="path28" fill="none" stroke="#404040" stroke-width="1.5" d="M20.646,149.592c-5.541,20.586,1.58,42.504,18.164,55.902"/>
	<circle id="circle30" display="none" fill="none" stroke="#0000FF" stroke-width="1.5" cx="28.31" cy="220.494" r="18.31"/>
	<circle id="circle32" display="none" fill="none" stroke="#0000FF" stroke-width="1.5" cx="108.588" cy="220.993" r="19.006"/>
	<circle id="circle34" display="none" fill="none" stroke="#0000FF" stroke-width="1.5" cx="133.752" cy="144.592" r="18.682"/>
	<path id="path36" fill="none" stroke="#404040" stroke-width="1.5" d="M115.752,149.592c-7.461-20.031-26.197-33.643-47.553-34.549
		"/>
	<path id="path38" fill="none" stroke="#404040" stroke-width="1.5" d="M38.81,205.493c8.662,6.666,19.026,10,29.389,10
		c10.363,0,20.727-3.333,29.389-10"/>
	<circle id="circle40" fill="#C0C0C0" stroke="#000000" cx="68.199" cy="166.443" r="5"/>
	<circle id="circle42" fill="#C0C0C0" stroke="#000000" cx="68.199" cy="115.043" r="5"/>
	<circle id="circle44" fill="#C0C0C0" stroke="#000000" cx="115.752" cy="149.592" r="5"/>
	<circle id="circle46" fill="#C0C0C0" stroke="#000000" cx="97.588" cy="205.493" r="5"/>
	<circle id="circle48" fill="#C0C0C0" stroke="#000000" cx="38.81" cy="205.493" r="5"/>
	<circle id="circle50" fill="#C0C0C0" stroke="#000000" cx="20.646" cy="149.592" r="5"/>
</g>
</svg>
